<svg xmlns="http://www.w3.org/2000/svg" width="1280" height="320" viewBox="0 0 1280 320" role="img" aria-label="agent-compact-advisor: Tells you when your Claude Code session is ready to /compact.">
  <title>agent-compact-advisor: Tells you when your Claude Code session is ready to /compact.</title>
  <rect x="1" y="1" width="1278" height="318" rx="18" fill="#0F1626" stroke="#26324A" stroke-width="2"/>
  
    <path d="M102 200 A66 66 0 0 1 234 200" fill="none" stroke="#26324A" stroke-width="12" stroke-linecap="round"/>
    <path d="M102 200 A66 66 0 0 1 221.4 161.21" fill="none" stroke="#F5B451" stroke-width="12" stroke-linecap="round"/>
    <line x1="86" y1="200" x2="76" y2="200" stroke="#7C889C" stroke-width="4" stroke-linecap="round"/><line x1="110.02" y1="142.02" x2="102.95" y2="134.95" stroke="#7C889C" stroke-width="4" stroke-linecap="round"/><line x1="168" y1="118" x2="168" y2="108" stroke="#7C889C" stroke-width="4" stroke-linecap="round"/><line x1="225.98" y1="142.02" x2="233.05" y2="134.95" stroke="#7C889C" stroke-width="4" stroke-linecap="round"/><line x1="250" y1="200" x2="260" y2="200" stroke="#7C889C" stroke-width="4" stroke-linecap="round"/>
    <line x1="168" y1="200" x2="206.64" y2="165.21" stroke="#EDF1F7" stroke-width="6" stroke-linecap="round"/>
    <circle cx="168" cy="200" r="9" fill="#EDF1F7"/>
  <circle cx="1112" cy="52" r="6" fill="none" stroke="#7C889C" stroke-width="2"/><circle cx="1134" cy="52" r="6" fill="none" stroke="#7C889C" stroke-width="2"/><circle cx="1156" cy="52" r="7" fill="#F5B451"/>
  <text x="1094" y="58" text-anchor="end" font-family="-apple-system, BlinkMacSystemFont, 'Segoe UI', 'Helvetica Neue', Helvetica, Arial, sans-serif" font-size="17" font-weight="500" fill="#7C889C">agent-watch</text>
  <text x="290" y="148" font-family="-apple-system, BlinkMacSystemFont, 'Segoe UI', 'Helvetica Neue', Helvetica, Arial, sans-serif" font-size="62" font-weight="700" letter-spacing="-1.2" fill="#EDF1F7">agent-compact-advisor</text>
  <text x="292" y="196" font-family="-apple-system, BlinkMacSystemFont, 'Segoe UI', 'Helvetica Neue', Helvetica, Arial, sans-serif" font-size="25" fill="#A3AEC0">Tells you when your Claude Code session is ready to /compact.</text>
  <line x1="292" y1="230" x2="1216" y2="230" stroke="#26324A" stroke-width="1.5"/>
  <text x="292" y="266" font-family="ui-monospace, SFMono-Regular, Menlo, Consolas, 'Liberation Mono', monospace" font-size="18" xml:space="preserve"><tspan fill="#7C889C">agent-compact-advisor: </tspan><tspan fill="#F5B451">score 98</tspan><tspan fill="#A3AEC0"> · 400k 40% · leftovers none · P1 .90 · cache warm</tspan></text>
</svg>
